<svg id="svg" version="1.1" xmlns="http://www.w3.org/2000/svg" xmlns:xlink="http://www.w3.org/1999/xlink" width="400" height="400" viewBox="0, 0, 400,400"><g id="svgg"><path id="path0" d="M125.474 115.216 C 125.160 115.665,124.111 116.880,123.143 117.916 C 122.175 118.952,120.762 120.610,120.002 121.600 C 119.242 122.590,118.503 123.490,118.358 123.600 C 116.233 125.221,107.094 141.689,104.596 148.400 C 104.227 149.390,103.781 150.560,103.603 151.000 C 103.133 152.165,102.561 153.951,102.000 156.000 C 101.729 156.990,101.365 158.250,101.192 158.800 C 100.809 160.014,100.179 162.704,99.645 165.400 C 99.270 167.296,98.916 169.448,98.000 175.400 C 97.780 176.830,97.421 179.125,97.203 180.500 C 96.985 181.875,95.993 188.490,95.000 195.200 C 94.007 201.910,93.015 208.525,92.797 209.900 C 92.140 214.039,91.681 217.046,90.384 225.702 C 90.145 227.296,89.792 229.590,89.600 230.800 C 89.408 232.010,89.048 234.350,88.800 236.000 C 88.552 237.650,88.192 239.990,88.000 241.200 C 87.808 242.410,87.448 244.750,87.200 246.400 C 86.952 248.050,86.590 250.390,86.395 251.600 C 86.201 252.810,85.843 255.240,85.600 257.000 C 85.357 258.760,84.999 261.190,84.805 262.400 C 84.610 263.610,84.248 265.950,84.000 267.600 C 83.752 269.250,83.392 271.590,83.200 272.800 C 83.008 274.010,82.655 276.304,82.416 277.898 C 81.404 284.652,81.180 286.127,80.803 288.500 C 80.585 289.875,79.593 296.490,78.600 303.200 C 77.607 309.910,76.615 316.525,76.397 317.900 C 75.740 322.039,75.281 325.046,73.984 333.702 C 73.745 335.296,73.392 337.590,73.200 338.800 C 73.008 340.010,72.644 342.350,72.392 344.000 C 72.141 345.650,71.653 348.576,71.308 350.502 L 70.682 354.004 71.602 354.802 C 72.108 355.241,72.656 355.600,72.819 355.600 C 72.982 355.600,73.695 356.118,74.404 356.751 C 76.327 358.469,76.744 358.800,76.987 358.800 C 77.108 358.800,77.772 359.340,78.463 360.000 C 79.154 360.660,79.874 361.200,80.063 361.200 C 80.252 361.200,80.972 361.740,81.663 362.400 C 82.354 363.060,83.122 363.600,83.371 363.600 C 83.620 363.600,84.083 363.960,84.400 364.400 C 84.717 364.840,85.257 365.200,85.600 365.200 C 85.943 365.200,86.483 365.560,86.800 366.000 C 87.117 366.440,87.657 366.800,88.000 366.800 C 88.343 366.800,88.883 367.160,89.200 367.600 C 89.517 368.040,90.031 368.400,90.341 368.400 C 90.652 368.400,91.197 368.716,91.553 369.103 C 91.909 369.489,92.740 370.074,93.400 370.403 C 94.060 370.731,94.949 371.315,95.375 371.700 C 95.802 372.085,96.372 372.400,96.642 372.400 C 96.912 372.400,97.193 372.535,97.267 372.700 C 97.477 373.174,101.438 375.200,102.154 375.200 C 102.509 375.200,102.800 375.380,102.800 375.600 C 102.800 375.820,103.036 376.000,103.325 376.000 C 103.613 376.000,104.236 376.360,104.708 376.800 C 105.180 377.240,105.844 377.600,106.183 377.600 C 106.522 377.600,106.800 377.780,106.800 378.000 C 106.800 378.220,107.160 378.400,107.600 378.400 C 108.040 378.400,108.400 378.580,108.400 378.800 C 108.400 379.020,108.760 379.200,109.200 379.200 C 109.640 379.200,110.000 379.346,110.000 379.525 C 110.000 379.704,110.630 380.098,111.400 380.400 C 112.170 380.702,112.800 381.096,112.800 381.275 C 112.800 381.454,113.239 381.600,113.776 381.600 C 114.313 381.600,114.864 381.780,115.000 382.000 C 115.136 382.220,115.597 382.400,116.024 382.400 C 116.451 382.400,116.800 382.580,116.800 382.800 C 116.800 383.020,117.160 383.200,117.600 383.200 C 118.040 383.200,118.400 383.380,118.400 383.600 C 118.400 383.820,118.760 384.000,119.200 384.000 C 119.640 384.000,120.000 384.147,120.000 384.328 C 120.000 384.508,120.900 384.900,122.000 385.200 C 123.100 385.500,124.000 385.892,124.000 386.072 C 124.000 386.253,124.272 386.400,124.605 386.400 C 124.938 386.400,125.523 386.559,125.905 386.753 C 126.287 386.948,127.050 387.284,127.600 387.500 C 128.150 387.716,129.050 388.090,129.600 388.331 C 131.781 389.287,139.269 391.600,140.182 391.600 C 140.716 391.600,141.264 391.780,141.400 392.000 C 141.536 392.220,142.177 392.400,142.824 392.400 C 143.471 392.400,144.000 392.580,144.000 392.800 C 144.000 393.020,144.529 393.200,145.176 393.200 C 145.823 393.200,146.464 393.380,146.600 393.600 C 146.736 393.820,147.456 394.000,148.200 394.000 C 148.944 394.000,149.664 394.180,149.800 394.400 C 149.936 394.620,150.667 394.800,151.424 394.800 C 152.181 394.800,152.800 394.980,152.800 395.200 C 152.800 395.420,153.700 395.600,154.800 395.600 C 155.900 395.600,156.800 395.780,156.800 396.000 C 156.800 396.220,157.509 396.400,158.376 396.400 C 159.243 396.400,160.064 396.580,160.200 396.800 C 160.336 397.020,161.337 397.200,162.424 397.200 C 163.511 397.200,164.400 397.380,164.400 397.600 C 164.400 397.822,165.467 398.000,166.800 398.000 C 168.133 398.000,169.200 398.178,169.200 398.400 C 169.200 398.628,170.389 398.800,171.967 398.800 C 173.824 398.800,174.788 398.964,174.900 399.300 C 175.031 399.693,180.409 399.800,200.000 399.800 C 219.591 399.800,224.969 399.693,225.100 399.300 C 225.212 398.964,226.176 398.800,228.033 398.800 C 229.611 398.800,230.800 398.628,230.800 398.400 C 230.800 398.174,231.933 398.000,233.400 398.000 C 234.867 398.000,236.000 397.826,236.000 397.600 C 236.000 397.380,236.900 397.200,238.000 397.200 C 239.100 397.200,240.000 397.020,240.000 396.800 C 240.000 396.580,240.799 396.400,241.776 396.400 C 242.753 396.400,243.664 396.220,243.800 396.000 C 243.936 395.780,244.757 395.600,245.624 395.600 C 246.491 395.600,247.200 395.420,247.200 395.200 C 247.200 394.980,247.819 394.800,248.576 394.800 C 249.333 394.800,250.064 394.620,250.200 394.400 C 250.336 394.180,251.157 394.000,252.024 394.000 C 252.891 394.000,253.600 393.820,253.600 393.600 C 253.600 393.380,254.140 393.200,254.800 393.200 C 255.460 393.200,256.000 393.020,256.000 392.800 C 256.000 392.580,256.630 392.400,257.400 392.400 C 258.170 392.400,258.800 392.220,258.800 392.000 C 258.800 391.780,259.244 391.600,259.786 391.600 C 260.328 391.600,261.633 391.308,262.686 390.950 C 263.739 390.593,264.820 390.268,265.088 390.228 C 265.357 390.189,265.702 390.031,265.855 389.878 C 266.008 389.725,266.543 389.600,267.043 389.600 C 267.543 389.600,268.042 389.456,268.151 389.279 C 268.260 389.103,269.261 388.710,270.375 388.407 C 271.489 388.104,272.400 387.708,272.400 387.528 C 272.400 387.347,272.850 387.200,273.400 387.200 C 273.950 387.200,274.400 387.020,274.400 386.800 C 274.400 386.580,274.760 386.400,275.200 386.400 C 275.640 386.400,276.000 386.220,276.000 386.000 C 276.000 385.780,276.540 385.600,277.200 385.600 C 277.860 385.600,278.400 385.420,278.400 385.200 C 278.400 384.980,278.760 384.800,279.200 384.800 C 279.640 384.800,280.000 384.620,280.000 384.400 C 280.000 384.180,280.360 384.000,280.800 384.000 C 281.240 384.000,281.600 383.820,281.600 383.600 C 281.600 383.380,281.960 383.200,282.400 383.200 C 282.840 383.200,283.200 383.020,283.200 382.800 C 283.200 382.580,283.639 382.400,284.176 382.400 C 284.713 382.400,285.264 382.220,285.400 382.000 C 285.536 381.780,285.997 381.600,286.424 381.600 C 286.851 381.600,287.200 381.420,287.200 381.200 C 287.200 380.980,287.560 380.800,288.000 380.800 C 288.440 380.800,288.800 380.654,288.800 380.475 C 288.800 380.296,289.430 379.902,290.200 379.600 C 290.970 379.298,291.600 378.904,291.600 378.725 C 291.600 378.546,291.960 378.400,292.400 378.400 C 292.840 378.400,293.200 378.220,293.200 378.000 C 293.200 377.780,293.560 377.600,294.000 377.600 C 294.440 377.600,294.800 377.420,294.800 377.200 C 294.800 376.980,295.036 376.800,295.325 376.800 C 295.613 376.800,296.236 376.440,296.708 376.000 C 297.180 375.560,297.760 375.200,297.997 375.200 C 298.476 375.200,302.486 373.236,302.800 372.848 C 303.113 372.461,305.324 371.175,306.100 370.929 C 306.485 370.807,306.800 370.548,306.800 370.353 C 306.800 370.159,307.030 370.000,307.312 370.000 C 307.593 370.000,308.083 369.640,308.400 369.200 C 308.717 368.760,309.257 368.400,309.600 368.400 C 309.943 368.400,310.483 368.040,310.800 367.600 C 311.117 367.160,311.657 366.800,312.000 366.800 C 312.343 366.800,312.883 366.440,313.200 366.000 C 313.517 365.560,314.057 365.200,314.400 365.200 C 314.743 365.200,315.283 364.840,315.600 364.400 C 315.917 363.960,316.425 363.600,316.728 363.600 C 317.031 363.600,317.783 363.060,318.400 362.400 C 319.017 361.740,319.737 361.200,320.000 361.200 C 320.263 361.200,320.983 360.660,321.600 360.000 C 322.217 359.340,322.881 358.800,323.077 358.800 C 323.273 358.800,324.101 358.170,324.918 357.400 C 325.734 356.630,326.536 356.000,326.701 356.000 C 329.021 355.996,329.261 354.152,328.000 346.000 C 327.813 344.790,327.453 342.450,327.200 340.800 C 326.947 339.150,326.587 336.810,326.400 335.600 C 325.550 330.108,325.110 327.225,324.780 325.000 C 324.584 323.680,324.252 321.520,324.042 320.200 C 323.832 318.880,323.473 316.540,323.245 315.000 C 323.017 313.460,322.650 311.030,322.428 309.600 C 322.206 308.170,321.839 305.785,321.612 304.300 C 321.122 301.089,320.544 297.334,320.013 293.900 C 319.800 292.525,319.442 290.140,319.217 288.600 C 318.992 287.060,318.641 284.720,318.437 283.400 C 318.233 282.080,317.595 277.850,317.020 274.000 C 316.445 270.150,315.786 265.740,315.555 264.200 C 315.325 262.660,314.965 260.230,314.756 258.800 C 314.546 257.370,314.194 255.030,313.972 253.600 C 313.750 252.170,313.383 249.740,313.155 248.200 C 312.927 246.660,312.587 244.410,312.400 243.200 C 312.040 240.872,311.382 236.580,310.774 232.600 C 310.573 231.280,310.221 228.940,309.992 227.400 C 309.763 225.860,309.401 223.475,309.188 222.100 C 308.568 218.104,308.028 214.589,307.623 211.900 C 307.415 210.525,307.142 208.770,307.015 208.000 C 306.888 207.230,306.597 205.340,306.367 203.800 C 306.138 202.260,305.792 200.010,305.600 198.800 C 305.408 197.590,305.048 195.250,304.800 193.600 C 304.552 191.950,304.192 189.610,304.000 188.400 C 303.808 187.190,303.455 184.896,303.216 183.302 C 301.559 172.239,301.274 170.439,300.545 166.400 C 299.570 160.999,297.190 152.369,295.637 148.600 C 295.455 148.160,295.124 147.350,294.901 146.800 C 292.179 140.090,283.732 125.360,281.596 123.600 C 281.463 123.490,281.094 123.021,280.777 122.557 C 280.139 121.625,277.351 118.273,275.232 115.891 L 273.865 114.353 270.832 117.325 C 266.759 121.318,259.319 126.000,257.049 126.000 C 256.718 126.000,256.348 126.160,256.227 126.356 C 255.974 126.765,255.171 126.921,248.600 127.828 C 241.829 128.763,151.476 128.081,147.165 127.062 C 140.259 125.430,134.122 122.028,129.081 117.036 C 126.056 114.041,126.234 114.131,125.474 115.216 M255.400 182.549 C 271.638 186.071,271.261 208.264,254.905 211.643 C 250.680 212.515,245.687 210.908,242.376 207.608 C 232.157 197.424,241.460 179.525,255.400 182.549 M153.689 184.315 C 167.424 191.081,162.533 211.791,147.200 211.791 C 131.229 211.791,127.096 189.957,141.891 183.749 C 145.378 182.286,150.022 182.508,153.689 184.315 M216.108 224.660 C 224.519 233.052,232.621 241.163,234.113 242.682 L 236.825 245.445 232.213 253.577 L 227.601 261.708 228.744 265.154 C 229.372 267.049,230.113 269.410,230.390 270.400 C 230.666 271.390,231.040 272.650,231.220 273.200 C 232.184 276.146,234.857 288.276,235.407 292.200 C 235.679 294.147,236.366 301.270,236.467 303.200 C 237.225 317.670,226.525 333.141,212.400 337.999 C 211.630 338.264,210.640 338.630,210.200 338.813 C 205.839 340.625,193.982 340.190,188.200 338.007 C 168.696 330.641,160.622 313.805,165.179 290.000 C 166.085 285.264,166.488 283.288,166.808 282.000 C 168.740 274.244,169.376 271.918,170.643 267.968 C 171.448 265.455,172.185 262.950,172.280 262.400 C 172.406 261.670,171.260 259.296,168.031 253.600 C 165.598 249.310,163.606 245.625,163.604 245.410 C 163.595 244.596,199.391 209.175,200.108 209.288 C 200.498 209.350,207.698 216.267,216.108 224.660 " stroke="none" fill="#f3f3f7" fill-rule="evenodd"></path><path id="path1" d="M178.300 0.275 C 176.375 0.361,174.800 0.604,174.800 0.816 C 174.800 1.027,173.540 1.200,172.000 1.200 C 170.400 1.200,169.200 1.371,169.200 1.600 C 169.200 1.822,168.133 2.000,166.800 2.000 C 165.467 2.000,164.400 2.178,164.400 2.400 C 164.400 2.620,163.410 2.800,162.200 2.800 C 160.990 2.800,160.000 2.980,160.000 3.200 C 160.000 3.420,159.201 3.600,158.224 3.600 C 157.247 3.600,156.336 3.780,156.200 4.000 C 156.064 4.220,155.344 4.400,154.600 4.400 C 153.856 4.400,153.136 4.580,153.000 4.800 C 152.864 5.020,152.043 5.200,151.176 5.200 C 150.309 5.200,149.600 5.380,149.600 5.600 C 149.600 5.820,148.981 6.000,148.224 6.000 C 147.467 6.000,146.736 6.180,146.600 6.400 C 146.464 6.620,145.924 6.800,145.400 6.800 C 144.876 6.800,144.336 6.980,144.200 7.200 C 144.064 7.420,143.434 7.600,142.800 7.600 C 142.166 7.600,141.536 7.780,141.400 8.000 C 141.264 8.220,140.734 8.400,140.222 8.400 C 139.188 8.400,135.686 9.400,133.732 10.253 C 133.034 10.558,131.909 10.918,131.232 11.054 C 130.554 11.189,130.000 11.457,130.000 11.650 C 130.000 11.843,129.561 12.000,129.024 12.000 C 128.487 12.000,127.936 12.180,127.800 12.400 C 127.664 12.620,127.113 12.800,126.576 12.800 C 126.039 12.800,125.600 12.980,125.600 13.200 C 125.600 13.420,125.240 13.600,124.800 13.600 C 124.360 13.600,124.000 13.780,124.000 14.000 C 124.000 14.220,123.561 14.400,123.024 14.400 C 122.487 14.400,121.936 14.580,121.800 14.800 C 121.664 15.020,121.203 15.200,120.776 15.200 C 120.349 15.200,120.000 15.380,120.000 15.600 C 120.000 15.820,119.640 16.000,119.200 16.000 C 118.760 16.000,118.400 16.180,118.400 16.400 C 118.400 16.620,118.128 16.800,117.795 16.800 C 117.462 16.800,116.877 16.962,116.495 17.159 C 116.113 17.357,114.180 18.300,112.200 19.255 C 110.220 20.211,108.540 21.129,108.467 21.296 C 108.393 21.463,107.988 21.600,107.567 21.600 C 107.145 21.600,106.800 21.780,106.800 22.000 C 106.800 22.220,106.440 22.400,106.000 22.400 C 105.560 22.400,105.200 22.558,105.200 22.751 C 105.200 22.945,104.660 23.327,104.000 23.600 C 103.340 23.873,102.800 24.255,102.800 24.449 C 102.800 24.642,102.536 24.800,102.214 24.800 C 101.401 24.800,98.800 26.076,98.800 26.474 C 98.800 26.653,98.440 26.800,98.000 26.800 C 97.560 26.800,97.200 26.958,97.200 27.151 C 97.200 27.345,96.660 27.727,96.000 28.000 C 95.340 28.273,94.800 28.655,94.800 28.849 C 94.800 29.042,94.552 29.200,94.249 29.200 C 93.946 29.200,93.476 29.468,93.204 29.796 C 92.932 30.123,92.583 30.313,92.428 30.217 C 92.273 30.121,91.893 30.393,91.585 30.821 C 91.276 31.250,90.743 31.600,90.400 31.600 C 90.057 31.600,89.517 31.960,89.200 32.400 C 88.883 32.840,88.343 33.200,88.000 33.200 C 87.657 33.200,87.117 33.560,86.800 34.000 C 86.483 34.440,85.991 34.800,85.708 34.800 C 85.425 34.800,84.628 35.340,83.937 36.000 C 83.246 36.660,82.478 37.200,82.229 37.200 C 81.980 37.200,81.517 37.560,81.200 38.000 C 80.883 38.440,80.293 38.800,79.888 38.800 C 79.484 38.800,79.264 38.980,79.400 39.200 C 79.536 39.420,79.502 39.600,79.324 39.600 C 79.146 39.601,78.520 40.006,77.934 40.500 C 75.487 42.565,75.200 42.782,75.200 42.578 C 75.200 42.460,74.742 42.822,74.182 43.382 C 73.622 43.942,72.997 44.400,72.792 44.400 C 72.588 44.400,71.651 45.167,70.711 46.105 C 69.770 47.043,68.370 48.255,67.600 48.799 C 66.830 49.342,64.439 51.590,62.287 53.793 C 57.582 58.611,58.611 57.582,53.793 62.287 C 51.590 64.439,49.346 66.830,48.806 67.600 C 48.267 68.370,47.145 69.661,46.313 70.469 C 45.481 71.276,44.800 72.105,44.800 72.309 C 44.800 72.514,44.258 73.248,43.597 73.941 C 42.935 74.633,42.483 75.200,42.593 75.200 C 42.783 75.200,42.556 75.496,40.500 77.934 C 40.006 78.520,39.601 79.146,39.600 79.324 C 39.600 79.502,39.420 79.536,39.200 79.400 C 38.980 79.264,38.800 79.484,38.800 79.888 C 38.800 80.293,38.440 80.883,38.000 81.200 C 37.560 81.517,37.200 81.980,37.200 82.229 C 37.200 82.478,36.660 83.246,36.000 83.937 C 35.340 84.628,34.800 85.425,34.800 85.708 C 34.800 85.991,34.440 86.483,34.000 86.800 C 33.560 87.117,33.200 87.697,33.200 88.088 C 33.200 88.480,33.050 88.800,32.868 88.800 C 32.685 88.800,32.281 89.295,31.970 89.900 C 31.660 90.505,31.089 91.291,30.703 91.647 C 30.316 92.003,30.000 92.588,30.000 92.947 C 30.000 93.306,29.861 93.600,29.691 93.600 C 29.521 93.600,29.026 94.262,28.591 95.071 C 28.156 95.879,27.594 96.747,27.343 96.999 C 26.663 97.680,24.800 101.481,24.800 102.187 C 24.800 102.524,24.642 102.800,24.449 102.800 C 24.255 102.800,23.873 103.340,23.600 104.000 C 23.327 104.660,22.945 105.200,22.751 105.200 C 22.558 105.200,22.400 105.560,22.400 106.000 C 22.400 106.440,22.220 106.800,22.000 106.800 C 21.780 106.800,21.600 107.145,21.600 107.567 C 21.600 107.988,21.465 108.393,21.300 108.467 C 20.868 108.659,19.200 111.972,19.200 112.638 C 19.200 112.947,19.065 113.201,18.900 113.203 C 18.494 113.207,17.600 115.186,17.600 116.080 C 17.600 116.476,17.420 116.800,17.200 116.800 C 16.980 116.800,16.800 117.160,16.800 117.600 C 16.800 118.040,16.620 118.400,16.400 118.400 C 16.180 118.400,16.000 118.760,16.000 119.200 C 16.000 119.640,15.820 120.000,15.600 120.000 C 15.380 120.000,15.200 120.349,15.200 120.776 C 15.200 121.203,15.020 121.664,14.800 121.800 C 14.580 121.936,14.400 122.487,14.400 123.024 C 14.400 123.561,14.220 124.000,14.000 124.000 C 13.780 124.000,13.600 124.360,13.600 124.800 C 13.600 125.240,13.420 125.600,13.200 125.600 C 12.980 125.600,12.800 126.039,12.800 126.576 C 12.800 127.113,12.620 127.664,12.400 127.800 C 12.180 127.936,12.000 128.487,12.000 129.024 C 12.000 129.561,11.859 130.000,11.687 130.000 C 11.515 130.000,11.129 130.855,10.829 131.900 C 10.529 132.945,10.154 133.980,9.996 134.200 C 9.837 134.420,9.609 135.050,9.489 135.600 C 9.369 136.150,9.145 137.050,8.991 137.600 C 8.837 138.150,8.621 139.185,8.512 139.900 C 8.402 140.615,8.152 141.200,7.956 141.200 C 7.760 141.200,7.600 141.819,7.600 142.576 C 7.600 143.333,7.420 144.064,7.200 144.200 C 6.980 144.336,6.800 144.876,6.800 145.400 C 6.800 145.924,6.620 146.464,6.400 146.600 C 6.180 146.736,6.000 147.467,6.000 148.224 C 6.000 148.981,5.820 149.600,5.600 149.600 C 5.380 149.600,5.200 150.309,5.200 151.176 C 5.200 152.043,5.020 152.864,4.800 153.000 C 4.580 153.136,4.400 153.856,4.400 154.600 C 4.400 155.344,4.220 156.064,4.000 156.200 C 3.780 156.336,3.600 157.247,3.600 158.224 C 3.600 159.201,3.420 160.000,3.200 160.000 C 2.980 160.000,2.800 160.990,2.800 162.200 C 2.800 163.410,2.620 164.400,2.400 164.400 C 2.180 164.400,2.000 165.379,2.000 166.576 C 2.000 167.773,1.820 168.864,1.600 169.000 C 1.380 169.136,1.200 170.371,1.200 171.744 C 1.200 173.207,0.993 174.447,0.700 174.740 C 0.311 175.129,0.200 180.743,0.200 200.087 C 0.200 219.608,0.307 224.969,0.700 225.100 C 1.035 225.212,1.200 226.171,1.200 228.010 C 1.200 229.518,1.380 230.864,1.600 231.000 C 1.820 231.136,2.000 232.216,2.000 233.400 C 2.000 234.584,2.180 235.664,2.400 235.800 C 2.620 235.936,2.800 236.836,2.800 237.800 C 2.800 238.764,2.980 239.664,3.200 239.800 C 3.420 239.936,3.600 240.836,3.600 241.800 C 3.600 242.764,3.780 243.664,4.000 243.800 C 4.220 243.936,4.400 244.656,4.400 245.400 C 4.400 246.144,4.580 246.864,4.800 247.000 C 5.020 247.136,5.200 247.957,5.200 248.824 C 5.200 249.691,5.380 250.400,5.600 250.400 C 5.820 250.400,6.000 251.019,6.000 251.776 C 6.000 252.533,6.180 253.264,6.400 253.400 C 6.620 253.536,6.800 254.177,6.800 254.824 C 6.800 255.471,6.980 256.000,7.200 256.000 C 7.420 256.000,7.600 256.630,7.600 257.400 C 7.600 258.170,7.760 258.800,7.956 258.800 C 8.152 258.800,8.402 259.385,8.512 260.100 C 8.766 261.759,9.015 262.705,9.593 264.200 C 9.848 264.860,10.032 265.400,10.002 265.400 C 9.949 265.400,10.099 265.879,10.878 268.200 C 11.389 269.723,11.719 270.545,12.760 272.896 C 13.222 273.938,13.600 275.063,13.600 275.396 C 13.600 275.728,13.780 276.000,14.000 276.000 C 14.220 276.000,14.400 276.355,14.400 276.788 C 14.400 277.221,14.760 278.217,15.200 279.000 C 15.640 279.783,16.000 280.689,16.000 281.012 C 16.000 281.335,16.180 281.600,16.400 281.600 C 16.620 281.600,16.800 281.872,16.800 282.205 C 16.800 282.538,16.962 283.123,17.159 283.505 C 17.357 283.887,18.300 285.820,19.255 287.800 C 20.211 289.780,21.129 291.460,21.296 291.533 C 21.463 291.607,21.600 292.012,21.600 292.433 C 21.600 292.855,21.780 293.200,22.000 293.200 C 22.220 293.200,22.400 293.560,22.400 294.000 C 22.400 294.440,22.580 294.800,22.800 294.800 C 23.020 294.800,23.200 295.036,23.200 295.325 C 23.200 295.613,23.560 296.236,24.000 296.708 C 24.440 297.180,24.800 297.775,24.800 298.029 C 24.800 298.500,26.802 302.435,27.227 302.800 C 27.355 302.910,27.884 303.765,28.403 304.700 C 28.923 305.635,29.494 306.400,29.674 306.400 C 29.853 306.400,30.000 306.694,30.000 307.053 C 30.000 307.412,30.316 307.997,30.703 308.353 C 31.089 308.709,31.660 309.495,31.970 310.100 C 32.281 310.705,32.685 311.200,32.868 311.200 C 33.050 311.200,33.200 311.520,33.200 311.912 C 33.200 312.303,33.560 312.883,34.000 313.200 C 34.440 313.517,34.800 314.057,34.800 314.400 C 34.800 314.743,35.160 315.283,35.600 315.600 C 36.040 315.917,36.400 316.380,36.400 316.629 C 36.400 316.878,36.940 317.646,37.600 318.337 C 38.260 319.028,38.801 319.729,38.802 319.896 C 38.803 320.063,39.343 320.775,40.002 321.478 C 40.661 322.181,41.200 322.880,41.200 323.031 C 41.200 323.183,41.588 323.642,42.061 324.053 C 42.535 324.464,42.805 324.800,42.662 324.800 C 42.519 324.800,43.028 325.464,43.793 326.275 C 44.558 327.086,45.110 327.823,45.020 327.913 C 44.930 328.003,45.609 328.845,46.528 329.784 C 48.425 331.721,49.600 333.111,49.600 333.419 C 49.600 333.534,51.445 335.427,53.700 337.627 C 55.955 339.826,57.980 341.810,58.200 342.034 C 64.531 348.498,67.324 351.200,67.674 351.200 C 67.912 351.200,68.437 351.581,68.841 352.047 C 69.910 353.279,70.644 352.749,70.933 350.536 C 71.072 349.471,71.370 347.430,71.596 346.000 C 71.822 344.570,72.192 342.140,72.417 340.600 C 72.642 339.060,73.000 336.675,73.213 335.300 C 73.426 333.925,73.786 331.585,74.012 330.100 C 74.543 326.623,75.121 322.871,75.628 319.600 C 75.850 318.170,76.217 315.740,76.445 314.200 C 76.673 312.660,77.013 310.410,77.200 309.200 C 77.387 307.990,77.747 305.650,78.000 304.000 C 78.253 302.350,78.613 300.010,78.800 298.800 C 79.347 295.265,80.027 290.786,80.409 288.200 C 80.782 285.677,81.371 281.824,81.999 277.800 C 82.205 276.480,82.558 274.140,82.783 272.600 C 83.008 271.060,83.359 268.720,83.563 267.400 C 83.767 266.080,84.392 261.940,84.952 258.200 C 85.882 251.992,86.918 245.139,88.037 237.800 C 88.272 236.260,88.630 233.875,88.832 232.500 C 89.034 231.125,89.380 228.830,89.600 227.400 C 89.820 225.970,90.180 223.630,90.400 222.200 C 90.620 220.770,90.974 218.475,91.188 217.100 C 91.829 212.966,92.407 209.160,92.845 206.200 C 93.073 204.660,93.413 202.410,93.600 201.200 C 93.787 199.990,94.147 197.650,94.400 196.000 C 94.653 194.350,95.013 192.010,95.200 190.800 C 95.387 189.590,95.727 187.340,95.955 185.800 C 96.183 184.260,96.556 181.785,96.784 180.300 C 97.013 178.815,97.372 176.475,97.582 175.100 C 99.438 162.969,100.639 157.856,103.462 150.057 C 105.251 145.115,107.301 140.648,109.960 135.900 C 112.071 132.131,112.569 131.317,114.878 127.869 C 118.039 123.147,124.560 115.084,126.132 113.953 C 126.321 113.817,125.849 112.827,125.084 111.753 C 111.267 92.355,121.292 63.538,144.200 56.803 C 145.080 56.544,146.340 56.157,147.000 55.942 C 147.660 55.727,151.530 55.448,155.600 55.323 C 163.637 55.077,164.000 54.973,164.000 52.922 C 164.000 42.376,173.665 28.805,184.800 23.717 C 204.706 14.623,228.748 25.044,234.825 45.400 C 235.087 46.280,235.459 47.413,235.651 47.919 C 235.843 48.424,236.010 49.504,236.023 50.319 C 236.035 51.133,236.260 52.430,236.523 53.200 L 237.000 54.600 243.200 54.850 C 262.369 55.624,275.881 65.341,280.395 81.600 C 283.132 91.458,280.650 105.845,275.094 112.332 C 274.015 113.592,273.986 113.950,274.892 114.876 C 278.161 118.217,286.000 128.256,286.000 129.102 C 286.000 129.339,286.139 129.593,286.310 129.667 C 287.088 130.001,292.731 140.450,294.915 145.600 C 297.911 152.663,300.535 162.129,301.791 170.400 C 301.908 171.170,302.197 173.060,302.434 174.600 C 302.671 176.140,303.030 178.525,303.232 179.900 C 303.434 181.275,303.780 183.570,304.000 185.000 C 304.220 186.430,304.580 188.770,304.800 190.200 C 305.020 191.630,305.384 194.015,305.608 195.500 C 305.833 196.985,306.193 199.325,306.408 200.700 C 306.907 203.883,307.488 207.663,308.008 211.100 C 308.233 212.585,308.593 214.925,308.808 216.300 C 309.446 220.373,309.976 223.839,310.368 226.500 C 310.570 227.875,310.944 230.350,311.198 232.000 C 311.452 233.650,311.810 235.990,311.995 237.200 C 312.323 239.355,312.823 242.608,313.563 247.400 C 314.182 251.405,316.008 263.620,316.433 266.600 C 316.653 268.140,317.020 270.660,317.248 272.200 C 317.477 273.740,317.830 276.125,318.032 277.500 C 318.424 280.161,318.954 283.627,319.592 287.700 C 319.807 289.075,320.163 291.370,320.383 292.800 C 320.603 294.230,320.963 296.570,321.183 298.000 C 321.403 299.430,321.763 301.770,321.983 303.200 C 322.203 304.630,322.563 306.970,322.783 308.400 C 323.003 309.830,323.363 312.170,323.583 313.600 C 323.803 315.030,324.167 317.415,324.392 318.900 C 324.616 320.385,324.980 322.770,325.200 324.200 C 325.420 325.630,325.780 327.970,326.000 329.400 C 326.220 330.830,326.566 333.125,326.768 334.500 C 327.125 336.930,327.669 340.489,328.433 345.400 C 328.638 346.720,328.916 348.824,329.049 350.075 C 329.310 352.510,330.009 353.249,331.058 352.199 C 331.388 351.869,331.822 351.600,332.023 351.600 C 332.424 351.600,338.896 345.200,341.300 342.426 C 342.125 341.474,342.800 340.805,342.800 340.939 C 342.800 341.073,344.870 339.109,347.400 336.574 C 349.930 334.040,352.000 331.788,352.000 331.570 C 352.000 331.352,352.585 330.573,353.300 329.840 C 354.838 328.261,356.000 326.867,356.000 326.598 C 356.000 326.410,357.312 324.799,358.300 323.775 C 358.575 323.490,358.800 323.137,358.800 322.989 C 358.800 322.842,359.340 322.217,360.000 321.600 C 360.660 320.983,361.200 320.263,361.200 320.000 C 361.200 319.737,361.740 319.017,362.400 318.400 C 363.060 317.783,363.600 317.031,363.600 316.728 C 363.600 316.425,363.960 315.917,364.400 315.600 C 364.840 315.283,365.200 314.743,365.200 314.400 C 365.200 314.057,365.560 313.517,366.000 313.200 C 366.440 312.883,366.800 312.343,366.800 312.000 C 366.800 311.657,367.160 311.117,367.600 310.800 C 368.040 310.483,368.400 309.943,368.400 309.600 C 368.400 309.257,368.760 308.717,369.200 308.400 C 369.640 308.083,370.000 307.593,370.000 307.312 C 370.000 307.030,370.159 306.800,370.353 306.800 C 370.548 306.800,370.807 306.485,370.929 306.100 C 371.159 305.373,372.435 303.149,372.822 302.800 C 373.350 302.323,374.724 299.257,374.506 299.040 C 374.374 298.908,374.477 298.800,374.733 298.800 C 374.990 298.800,375.200 298.440,375.200 298.000 C 375.200 297.560,375.358 297.200,375.551 297.200 C 375.745 297.200,376.127 296.660,376.400 296.000 C 376.673 295.340,377.055 294.800,377.249 294.800 C 377.442 294.800,377.600 294.440,377.600 294.000 C 377.600 293.560,377.780 293.200,378.000 293.200 C 378.220 293.200,378.400 292.840,378.400 292.400 C 378.400 291.960,378.546 291.600,378.725 291.600 C 378.904 291.600,379.298 290.970,379.600 290.200 C 379.902 289.430,380.296 288.800,380.475 288.800 C 380.654 288.800,380.800 288.440,380.800 288.000 C 380.800 287.560,380.980 287.200,381.200 287.200 C 381.420 287.200,381.600 286.750,381.600 286.200 C 381.600 285.650,381.780 285.200,382.000 285.200 C 382.220 285.200,382.400 284.851,382.400 284.424 C 382.400 283.997,382.580 283.536,382.800 283.400 C 383.020 283.264,383.200 282.803,383.200 282.376 C 383.200 281.949,383.380 281.600,383.600 281.600 C 383.820 281.600,384.000 281.240,384.000 280.800 C 384.000 280.360,384.180 280.000,384.400 280.000 C 384.620 280.000,384.800 279.640,384.800 279.200 C 384.800 278.760,384.941 278.400,385.113 278.400 C 385.285 278.400,385.466 277.905,385.516 277.300 C 385.566 276.695,385.785 276.140,386.003 276.067 C 386.222 275.993,386.400 275.588,386.400 275.167 C 386.400 274.745,386.580 274.400,386.800 274.400 C 387.020 274.400,387.200 273.950,387.200 273.400 C 387.200 272.850,387.380 272.400,387.600 272.400 C 387.820 272.400,388.000 272.038,388.000 271.595 C 388.000 271.152,388.180 270.432,388.400 269.995 C 388.620 269.558,388.980 268.842,389.200 268.405 C 389.420 267.968,389.600 267.259,389.600 266.829 C 389.600 266.399,389.756 265.951,389.947 265.832 C 390.226 265.660,390.658 263.999,390.961 261.933 C 390.982 261.787,391.135 261.532,391.300 261.367 C 391.465 261.202,391.600 260.557,391.600 259.933 C 391.600 259.310,391.780 258.800,392.000 258.800 C 392.220 258.800,392.400 258.170,392.400 257.400 C 392.400 256.630,392.580 256.000,392.800 256.000 C 393.020 256.000,393.200 255.359,393.200 254.576 C 393.200 253.729,393.362 253.253,393.600 253.400 C 393.842 253.549,394.000 253.004,394.000 252.024 C 394.000 251.131,394.180 250.400,394.400 250.400 C 394.620 250.400,394.800 249.680,394.800 248.800 C 394.800 247.920,394.980 247.200,395.200 247.200 C 395.420 247.200,395.600 246.491,395.600 245.624 C 395.600 244.757,395.780 243.936,396.000 243.800 C 396.220 243.664,396.400 242.753,396.400 241.776 C 396.400 240.799,396.580 240.000,396.800 240.000 C 397.020 240.000,397.200 239.111,397.200 238.024 C 397.200 236.937,397.380 235.936,397.600 235.800 C 397.820 235.664,398.000 234.483,398.000 233.176 C 398.000 231.859,398.178 230.800,398.400 230.800 C 398.628 230.800,398.800 229.611,398.800 228.033 C 398.800 226.176,398.964 225.212,399.300 225.100 C 399.693 224.969,399.800 219.591,399.800 200.000 C 399.800 180.409,399.693 175.031,399.300 174.900 C 398.965 174.788,398.800 173.829,398.800 171.990 C 398.800 170.482,398.620 169.136,398.400 169.000 C 398.180 168.864,398.000 167.784,398.000 166.600 C 398.000 165.416,397.820 164.336,397.600 164.200 C 397.380 164.064,397.200 163.063,397.200 161.976 C 397.200 160.889,397.020 160.000,396.800 160.000 C 396.580 160.000,396.400 159.201,396.400 158.224 C 396.400 157.247,396.220 156.336,396.000 156.200 C 395.780 156.064,395.600 155.344,395.600 154.600 C 395.600 153.856,395.420 153.136,395.200 153.000 C 394.980 152.864,394.800 152.144,394.800 151.400 C 394.800 150.656,394.620 149.936,394.400 149.800 C 394.180 149.664,394.000 148.944,394.000 148.200 C 394.000 147.456,393.820 146.736,393.600 146.600 C 393.380 146.464,393.200 145.823,393.200 145.176 C 393.200 144.529,393.020 144.000,392.800 144.000 C 392.580 144.000,392.400 143.370,392.400 142.600 C 392.400 141.830,392.240 141.200,392.044 141.200 C 391.848 141.200,391.594 140.615,391.480 139.900 C 391.038 137.137,388.851 130.456,387.553 127.905 C 387.359 127.523,387.200 126.848,387.200 126.405 C 387.200 125.962,387.020 125.600,386.800 125.600 C 386.580 125.600,386.400 125.240,386.400 124.800 C 386.400 124.360,386.220 124.000,386.000 124.000 C 385.780 124.000,385.600 123.645,385.600 123.212 C 385.600 122.779,385.240 121.783,384.800 121.000 C 384.360 120.217,384.000 119.311,384.000 118.988 C 384.000 118.665,383.820 118.400,383.600 118.400 C 383.380 118.400,383.200 118.040,383.200 117.600 C 383.200 117.160,383.020 116.800,382.800 116.800 C 382.580 116.800,382.400 116.350,382.400 115.800 C 382.400 115.250,382.220 114.800,382.000 114.800 C 381.780 114.800,381.600 114.547,381.600 114.238 C 381.600 113.572,379.932 110.259,379.500 110.067 C 379.335 109.993,379.200 109.588,379.200 109.167 C 379.200 108.745,379.020 108.400,378.800 108.400 C 378.580 108.400,378.400 108.040,378.400 107.600 C 378.400 107.160,378.220 106.800,378.000 106.800 C 377.780 106.800,377.600 106.440,377.600 106.000 C 377.600 105.560,377.420 105.200,377.200 105.200 C 376.980 105.200,376.800 104.964,376.800 104.675 C 376.800 104.387,376.440 103.764,376.000 103.292 C 375.560 102.820,375.200 102.252,375.200 102.030 C 375.200 101.358,373.874 98.800,373.526 98.800 C 373.347 98.800,373.200 98.455,373.200 98.033 C 373.200 97.612,373.065 97.207,372.900 97.133 C 372.445 96.931,370.800 94.490,370.800 94.016 C 370.800 93.787,370.620 93.600,370.400 93.600 C 370.180 93.600,370.000 93.280,370.000 92.888 C 370.000 92.497,369.640 91.917,369.200 91.600 C 368.760 91.283,368.400 90.743,368.400 90.400 C 368.400 90.057,368.040 89.517,367.600 89.200 C 367.160 88.883,366.800 88.343,366.800 88.000 C 366.800 87.657,366.440 87.117,366.000 86.800 C 365.560 86.483,365.200 85.975,365.200 85.672 C 365.200 85.369,364.660 84.617,364.000 84.000 C 363.340 83.383,362.800 82.631,362.800 82.328 C 362.800 82.025,362.440 81.517,362.000 81.200 C 361.560 80.883,361.200 80.387,361.200 80.098 C 361.200 79.810,360.615 78.983,359.900 78.262 C 359.185 77.540,358.240 76.451,357.800 75.842 C 357.360 75.233,356.685 74.362,356.300 73.906 C 355.915 73.451,355.600 72.930,355.600 72.749 C 355.600 72.569,354.833 71.651,353.895 70.711 C 352.957 69.770,351.745 68.370,351.201 67.600 C 350.658 66.830,348.410 64.439,346.207 62.287 C 341.389 57.582,342.418 58.611,337.713 53.793 C 335.561 51.590,333.170 49.346,332.400 48.806 C 331.630 48.267,330.367 47.174,329.592 46.376 C 328.818 45.579,327.750 44.694,327.218 44.409 C 326.154 43.840,325.638 43.445,324.199 42.100 C 323.670 41.605,323.120 41.200,322.979 41.200 C 322.837 41.200,322.217 40.660,321.600 40.000 C 320.983 39.340,320.231 38.800,319.928 38.800 C 319.625 38.800,319.117 38.440,318.800 38.000 C 318.483 37.560,317.975 37.200,317.672 37.200 C 317.369 37.200,316.617 36.660,316.000 36.000 C 315.383 35.340,314.631 34.800,314.328 34.800 C 314.025 34.800,313.517 34.440,313.200 34.000 C 312.883 33.560,312.303 33.200,311.912 33.200 C 311.520 33.200,311.200 33.050,311.200 32.868 C 311.200 32.685,310.705 32.281,310.100 31.970 C 309.495 31.660,308.709 31.089,308.353 30.703 C 307.997 30.316,307.412 30.000,307.053 30.000 C 306.694 30.000,306.400 29.861,306.400 29.691 C 306.400 29.521,305.738 29.026,304.929 28.591 C 304.121 28.156,303.266 27.619,303.029 27.399 C 302.513 26.916,298.318 24.800,297.878 24.800 C 297.706 24.800,297.180 24.440,296.708 24.000 C 296.236 23.560,295.613 23.200,295.325 23.200 C 295.036 23.200,294.800 23.020,294.800 22.800 C 294.800 22.580,294.440 22.400,294.000 22.400 C 293.560 22.400,293.200 22.220,293.200 22.000 C 293.200 21.780,292.855 21.600,292.433 21.600 C 292.012 21.600,291.607 21.465,291.533 21.300 C 291.338 20.860,288.022 19.200,287.339 19.200 C 287.016 19.200,286.864 19.020,287.000 18.800 C 287.136 18.580,286.958 18.400,286.604 18.400 C 286.251 18.400,285.216 18.040,284.306 17.600 C 283.395 17.160,282.414 16.800,282.125 16.800 C 281.836 16.800,281.600 16.620,281.600 16.400 C 281.600 16.180,281.335 16.000,281.012 16.000 C 280.689 16.000,279.783 15.640,279.000 15.200 C 278.217 14.760,277.221 14.400,276.788 14.400 C 276.355 14.400,276.000 14.220,276.000 14.000 C 276.000 13.780,275.640 13.600,275.200 13.600 C 274.760 13.600,274.400 13.420,274.400 13.200 C 274.400 12.980,274.038 12.800,273.595 12.800 C 273.152 12.800,272.477 12.641,272.095 12.447 C 270.830 11.804,269.474 11.289,266.200 10.212 C 265.760 10.067,265.400 9.973,265.400 10.002 C 265.400 10.032,264.860 9.848,264.200 9.593 C 262.704 9.015,261.759 8.766,260.096 8.511 C 259.379 8.401,258.694 8.151,258.573 7.956 C 258.452 7.760,257.834 7.600,257.200 7.600 C 256.566 7.600,255.936 7.420,255.800 7.200 C 255.664 6.980,255.124 6.800,254.600 6.800 C 254.076 6.800,253.536 6.620,253.400 6.400 C 253.264 6.180,252.533 6.000,251.776 6.000 C 251.019 6.000,250.400 5.820,250.400 5.600 C 250.400 5.380,249.691 5.200,248.824 5.200 C 247.957 5.200,247.136 5.020,247.000 4.800 C 246.864 4.580,246.144 4.400,245.400 4.400 C 244.656 4.400,243.936 4.220,243.800 4.000 C 243.664 3.780,242.764 3.600,241.800 3.600 C 240.836 3.600,239.936 3.420,239.800 3.200 C 239.664 2.980,238.663 2.800,237.576 2.800 C 236.489 2.800,235.600 2.620,235.600 2.400 C 235.600 2.180,234.621 2.000,233.424 2.000 C 232.227 2.000,231.136 1.820,231.000 1.600 C 230.864 1.380,229.518 1.200,228.010 1.200 C 226.193 1.200,225.211 1.034,225.103 0.708 C 224.941 0.222,187.291 -0.126,178.300 0.275 M181.831 227.574 C 164.216 245.205,163.885 245.565,164.475 246.474 C 164.805 246.983,165.666 248.480,166.387 249.800 C 167.108 251.120,168.014 252.740,168.399 253.400 C 168.785 254.060,169.548 255.410,170.094 256.400 C 170.640 257.390,171.472 258.880,171.943 259.712 C 172.415 260.544,172.800 261.412,172.800 261.642 C 172.800 261.872,173.495 263.262,174.345 264.730 C 175.195 266.199,176.339 268.210,176.889 269.200 C 177.438 270.190,178.298 271.720,178.800 272.600 C 179.302 273.480,180.166 275.010,180.720 276.000 C 181.273 276.990,183.921 281.670,186.603 286.400 C 189.286 291.130,192.163 296.260,192.998 297.800 C 193.833 299.340,194.651 300.780,194.815 301.000 C 194.980 301.220,195.463 302.030,195.888 302.800 C 198.973 308.385,199.708 309.600,200.000 309.600 C 200.182 309.600,201.008 308.385,201.835 306.900 C 202.662 305.415,203.692 303.570,204.123 302.800 C 207.419 296.919,208.407 295.153,209.384 293.400 C 209.997 292.300,210.814 290.860,211.200 290.200 C 211.586 289.540,212.348 288.190,212.894 287.200 C 213.440 286.210,214.272 284.725,214.743 283.900 C 215.215 283.075,215.985 281.725,216.457 280.900 C 216.928 280.075,217.766 278.590,218.319 277.600 C 218.872 276.610,220.440 273.820,221.804 271.400 C 224.701 266.261,226.133 263.677,226.754 262.468 C 226.999 261.991,227.397 261.215,227.638 260.745 C 228.123 259.796,228.330 259.424,232.890 251.295 C 235.698 246.290,236.023 245.507,235.545 244.910 C 234.452 243.547,200.351 209.600,200.074 209.600 C 199.917 209.600,191.707 217.688,181.831 227.574 " stroke="none" fill="#fcc004" fill-rule="evenodd"></path><path id="path2" d="M193.099 21.006 C 177.399 24.433,164.000 39.130,164.000 52.922 C 164.000 54.973,163.637 55.077,155.600 55.323 C 151.530 55.448,147.660 55.727,147.000 55.942 C 146.340 56.157,145.080 56.544,144.200 56.803 C 122.910 63.063,112.516 88.047,122.872 108.072 C 126.379 114.855,137.761 124.800,142.017 124.800 C 142.422 124.800,142.864 124.980,143.000 125.200 C 143.136 125.420,143.676 125.600,144.200 125.600 C 144.724 125.600,145.252 125.761,145.374 125.958 C 146.209 127.309,249.360 128.212,253.000 126.900 C 253.660 126.662,254.920 126.260,255.800 126.007 C 262.993 123.939,273.327 116.182,276.248 110.659 C 280.776 102.100,281.880 97.551,281.460 89.200 C 280.450 69.164,265.510 55.751,243.200 54.850 L 237.000 54.600 236.523 53.200 C 236.260 52.430,236.035 51.133,236.023 50.319 C 236.010 49.504,235.843 48.424,235.651 47.919 C 235.459 47.413,235.087 46.280,234.825 45.400 C 231.302 33.598,220.663 24.045,207.494 20.861 C 205.037 20.267,196.072 20.357,193.099 21.006 M172.800 263.110 C 172.800 263.573,172.620 264.064,172.400 264.200 C 172.180 264.336,172.000 264.876,172.000 265.400 C 172.000 265.924,171.841 266.451,171.646 266.571 C 171.451 266.692,171.197 267.287,171.080 267.895 C 170.963 268.503,170.477 270.350,170.000 272.000 C 161.634 300.967,162.707 316.123,173.976 328.146 C 177.361 331.758,184.217 336.263,188.000 337.363 C 188.550 337.523,189.630 337.838,190.400 338.063 C 209.761 343.722,229.882 332.250,235.061 312.600 C 236.486 307.194,236.017 296.095,233.946 286.200 C 233.526 284.196,233.392 283.631,232.180 278.800 C 231.458 275.920,230.966 273.934,230.582 272.355 C 229.871 269.432,227.334 262.614,226.992 262.708 C 226.776 262.768,226.177 263.578,225.661 264.508 C 225.144 265.439,223.408 268.540,221.803 271.400 C 217.506 279.058,217.273 279.473,216.400 281.000 C 215.960 281.770,215.215 283.075,214.743 283.900 C 214.272 284.725,213.440 286.210,212.894 287.200 C 212.348 288.190,211.586 289.540,211.200 290.200 C 210.814 290.860,209.997 292.300,209.384 293.400 C 208.407 295.153,207.419 296.919,204.123 302.800 C 203.692 303.570,202.662 305.415,201.835 306.900 C 199.821 310.515,200.352 310.881,195.888 302.800 C 195.463 302.030,194.980 301.220,194.815 301.000 C 194.651 300.780,193.833 299.340,192.998 297.800 C 192.163 296.260,189.286 291.130,186.603 286.400 C 183.921 281.670,181.273 276.990,180.720 276.000 C 180.166 275.010,179.302 273.480,178.800 272.600 C 178.298 271.720,177.438 270.190,176.889 269.200 C 175.405 266.523,173.141 262.624,172.959 262.433 C 172.872 262.342,172.800 262.646,172.800 263.110 " stroke="none" fill="#fc5840" fill-rule="evenodd"></path><path id="path3" d="M249.600 182.754 C 238.825 185.138,234.520 198.358,241.808 206.683 C 250.519 216.631,267.200 210.270,267.200 197.000 C 267.200 187.918,258.411 180.804,249.600 182.754 M143.000 183.548 C 130.450 187.892,129.222 204.452,141.022 210.229 C 150.412 214.826,161.559 207.769,161.600 197.200 C 161.635 187.806,151.722 180.530,143.000 183.548 " stroke="none" fill="#555c68" fill-rule="evenodd"></path><path id="path4" d="M126.167 113.932 C 125.649 114.300,120.489 120.191,118.751 122.400 C 117.122 124.470,112.807 130.856,111.611 132.969 C 108.607 138.272,107.955 139.515,106.247 143.202 C 103.769 148.551,99.951 160.022,100.032 161.875 C 100.066 162.657,100.299 162.045,101.206 158.800 C 102.476 154.252,103.064 152.339,103.603 151.000 C 103.781 150.560,104.227 149.390,104.596 148.400 C 107.094 141.689,116.233 125.221,118.358 123.600 C 118.503 123.490,119.242 122.590,120.002 121.600 C 120.762 120.610,122.136 118.990,123.054 118.000 C 123.973 117.010,125.075 115.764,125.502 115.231 L 126.279 114.262 129.011 116.967 C 134.123 122.029,140.225 125.422,147.165 127.062 C 151.476 128.081,241.829 128.763,248.600 127.828 C 255.171 126.921,255.974 126.765,256.227 126.356 C 256.348 126.160,256.718 126.000,257.049 126.000 C 259.319 126.000,266.759 121.318,270.832 117.325 L 273.865 114.353 275.232 115.891 C 277.351 118.273,280.139 121.625,280.777 122.557 C 281.094 123.021,281.463 123.490,281.596 123.600 C 283.707 125.339,292.724 141.054,294.794 146.600 C 294.959 147.040,295.289 147.850,295.530 148.400 C 297.054 151.891,299.528 160.771,300.545 166.400 C 301.274 170.439,301.559 172.239,303.216 183.302 C 303.455 184.896,303.808 187.190,304.000 188.400 C 304.192 189.610,304.552 191.950,304.800 193.600 C 305.048 195.250,305.408 197.590,305.600 198.800 C 305.792 200.010,306.138 202.260,306.367 203.800 C 306.597 205.340,306.888 207.230,307.015 208.000 C 307.142 208.770,307.415 210.525,307.623 211.900 C 307.830 213.275,308.176 215.525,308.392 216.900 C 308.896 220.118,309.468 223.876,309.992 227.400 C 310.221 228.940,310.573 231.280,310.774 232.600 C 311.382 236.580,312.040 240.872,312.400 243.200 C 312.587 244.410,312.927 246.660,313.155 248.200 C 313.383 249.740,313.762 252.260,313.997 253.800 C 314.232 255.340,314.583 257.680,314.776 259.000 C 314.969 260.320,315.599 264.550,316.176 268.400 C 316.753 272.250,317.413 276.660,317.641 278.200 C 317.870 279.740,318.226 282.080,318.432 283.400 C 318.639 284.720,318.992 287.060,319.217 288.600 C 319.442 290.140,319.800 292.525,320.013 293.900 C 320.226 295.275,320.580 297.570,320.800 299.000 C 321.020 300.430,321.380 302.770,321.600 304.200 C 321.820 305.630,322.187 308.015,322.416 309.500 C 322.644 310.985,323.017 313.460,323.245 315.000 C 323.473 316.540,323.830 318.880,324.039 320.200 C 324.247 321.520,324.596 323.770,324.813 325.200 C 325.597 330.363,326.639 337.174,327.200 340.800 C 327.387 342.010,327.749 344.350,328.004 346.000 C 328.260 347.650,328.588 349.976,328.734 351.169 C 328.972 353.106,330.000 354.621,330.000 353.033 C 330.000 352.685,329.842 352.400,329.648 352.400 C 329.455 352.400,329.186 351.365,329.051 350.100 C 328.917 348.835,328.638 346.720,328.433 345.400 C 327.782 341.212,327.147 337.077,326.776 334.600 C 326.579 333.280,326.237 331.030,326.017 329.600 C 325.797 328.170,325.429 325.740,325.200 324.200 C 324.742 321.124,324.194 317.545,323.592 313.700 C 323.376 312.325,323.024 310.075,322.808 308.700 C 322.593 307.325,322.233 304.985,322.008 303.500 C 321.784 302.015,321.424 299.675,321.208 298.300 C 320.993 296.925,320.637 294.630,320.417 293.200 C 320.197 291.770,319.837 289.430,319.617 288.000 C 319.397 286.570,319.029 284.140,318.800 282.600 C 318.571 281.060,318.221 278.720,318.024 277.400 C 317.273 272.389,316.819 269.308,316.433 266.600 C 316.008 263.620,314.182 251.405,313.563 247.400 C 312.823 242.608,312.323 239.355,311.995 237.200 C 311.810 235.990,311.452 233.650,311.198 232.000 C 310.944 230.350,310.574 227.920,310.376 226.600 C 309.826 222.928,309.242 219.072,308.800 216.200 C 308.580 214.770,308.216 212.385,307.992 210.900 C 307.767 209.415,307.411 207.120,307.200 205.800 C 306.989 204.480,306.629 202.140,306.400 200.600 C 306.171 199.060,305.807 196.675,305.592 195.300 C 305.376 193.925,305.016 191.585,304.792 190.100 C 304.567 188.615,304.211 186.320,304.000 185.000 C 303.789 183.680,303.447 181.430,303.241 180.000 C 303.034 178.570,302.671 176.140,302.434 174.600 C 302.197 173.060,301.908 171.170,301.791 170.400 C 300.535 162.129,297.911 152.663,294.915 145.600 C 292.731 140.450,287.088 130.001,286.310 129.667 C 286.139 129.593,286.000 129.339,286.000 129.102 C 286.000 128.006,274.728 114.000,273.847 114.000 C 273.742 114.000,272.615 115.092,271.343 116.426 C 267.289 120.676,261.125 124.476,255.800 126.007 C 254.920 126.260,253.660 126.662,253.000 126.900 C 249.360 128.212,146.209 127.309,145.374 125.958 C 145.252 125.761,144.724 125.600,144.200 125.600 C 143.676 125.600,143.136 125.420,143.000 125.200 C 142.864 124.980,142.422 124.800,142.017 124.800 C 140.000 124.800,133.037 120.220,129.269 116.414 C 127.771 114.901,126.375 113.784,126.167 113.932 M99.489 163.600 C 99.336 164.150,99.225 165.050,99.242 165.600 C 99.268 166.461,99.326 166.414,99.658 165.260 C 99.870 164.524,99.981 163.624,99.906 163.260 C 99.808 162.794,99.686 162.893,99.489 163.600 M98.588 168.538 C 98.439 169.535,98.399 170.586,98.500 170.875 C 98.600 171.164,98.818 170.443,98.982 169.274 C 99.147 168.105,99.187 167.054,99.071 166.938 C 98.955 166.822,98.738 167.542,98.588 168.538 M97.896 172.750 C 97.733 173.493,97.618 174.663,97.640 175.350 C 97.678 176.538,97.699 176.521,98.056 175.000 C 98.262 174.120,98.377 172.950,98.311 172.400 C 98.205 171.513,98.158 171.552,97.896 172.750 M97.096 177.950 C 96.933 178.692,96.818 179.863,96.840 180.550 C 96.878 181.738,96.899 181.721,97.256 180.200 C 97.462 179.320,97.577 178.150,97.511 177.600 C 97.405 176.713,97.358 176.752,97.096 177.950 M96.296 183.150 C 96.133 183.893,96.020 185.153,96.044 185.950 C 96.088 187.400,96.088 187.400,96.450 185.600 C 96.650 184.610,96.763 183.350,96.702 182.800 C 96.604 181.920,96.556 181.961,96.296 183.150 M262.800 186.600 C 263.546 187.370,264.247 188.000,264.357 188.000 C 264.467 188.000,263.946 187.370,263.200 186.600 C 262.454 185.830,261.753 185.200,261.643 185.200 C 261.533 185.200,262.054 185.830,262.800 186.600 M157.200 187.000 C 157.946 187.770,158.647 188.400,158.757 188.400 C 158.867 188.400,158.346 187.770,157.600 187.000 C 156.854 186.230,156.153 185.600,156.043 185.600 C 155.933 185.600,156.454 186.230,157.200 187.000 M136.575 187.300 L 135.400 188.600 136.700 187.425 C 137.415 186.779,138.000 186.194,138.000 186.125 C 138.000 185.816,137.670 186.088,136.575 187.300 M95.497 188.400 C 95.340 188.950,95.228 190.120,95.249 191.000 L 95.288 192.600 95.649 190.800 C 96.083 188.644,95.964 186.771,95.497 188.400 M94.672 194.000 C 94.545 194.770,94.326 196.210,94.185 197.200 C 94.044 198.190,93.779 199.990,93.594 201.200 C 93.410 202.410,93.073 204.660,92.845 206.200 C 92.617 207.740,92.244 210.215,92.016 211.700 C 91.787 213.185,91.414 215.615,91.188 217.100 C 90.961 218.585,90.606 220.880,90.400 222.200 C 90.194 223.520,89.849 225.770,89.634 227.200 C 89.419 228.630,89.133 230.520,89.000 231.400 C 88.867 232.280,88.587 234.125,88.379 235.500 C 88.170 236.875,87.821 239.125,87.603 240.500 C 85.893 251.277,84.377 262.161,84.508 262.723 C 84.595 263.095,84.794 262.500,84.950 261.400 C 85.433 258.005,86.728 249.368,87.200 246.400 C 87.392 245.190,87.752 242.850,88.000 241.200 C 88.248 239.550,88.608 237.210,88.800 236.000 C 88.992 234.790,89.352 232.450,89.600 230.800 C 89.848 229.150,90.208 226.810,90.400 225.600 C 90.593 224.390,90.948 222.050,91.189 220.400 C 91.647 217.270,92.127 214.131,92.795 209.900 C 94.354 200.016,95.239 193.525,95.084 193.099 C 94.984 192.825,94.799 193.230,94.672 194.000 M262.778 207.500 L 261.400 209.000 262.900 207.622 C 264.296 206.338,264.584 206.000,264.278 206.000 C 264.212 206.000,263.537 206.675,262.778 207.500 M241.200 206.525 C 241.200 206.594,241.785 207.179,242.500 207.825 L 243.800 209.000 242.625 207.700 C 241.530 206.488,241.200 206.216,241.200 206.525 M181.500 227.099 C 171.655 236.956,163.602 245.196,163.604 245.410 C 163.606 245.625,165.598 249.310,168.031 253.600 C 171.260 259.296,172.406 261.670,172.280 262.400 C 172.185 262.950,171.448 265.455,170.643 267.968 C 169.376 271.918,168.740 274.244,166.808 282.000 C 166.488 283.288,166.085 285.264,165.179 290.000 C 160.622 313.805,168.696 330.641,188.200 338.007 C 193.982 340.190,205.839 340.625,210.200 338.813 C 210.640 338.630,211.630 338.264,212.400 337.999 C 221.875 334.740,231.888 324.811,234.180 316.400 C 234.330 315.850,233.649 317.024,232.666 319.008 C 224.603 335.288,207.416 343.037,190.400 338.063 C 189.630 337.838,188.550 337.523,188.000 337.363 C 184.217 336.263,177.361 331.758,173.976 328.146 C 162.707 316.123,161.634 300.967,170.000 272.000 C 170.477 270.350,170.963 268.503,171.080 267.895 C 171.197 267.287,171.451 266.692,171.646 266.571 C 171.841 266.451,172.000 265.924,172.000 265.400 C 172.000 264.876,172.180 264.336,172.400 264.200 C 173.090 263.774,172.837 261.289,171.943 259.712 C 171.472 258.880,170.640 257.390,170.094 256.400 C 169.548 255.410,168.785 254.060,168.399 253.400 C 168.014 252.740,167.108 251.120,166.387 249.800 C 165.666 248.480,164.805 246.983,164.475 246.474 C 163.885 245.565,164.216 245.205,181.831 227.574 C 191.707 217.688,199.917 209.600,200.074 209.600 C 200.351 209.600,234.452 243.547,235.545 244.910 C 236.023 245.507,235.698 246.290,232.890 251.295 C 231.130 254.433,229.327 257.650,228.883 258.445 C 228.439 259.240,227.842 260.264,227.557 260.720 C 227.109 261.437,227.259 262.219,228.659 266.475 C 229.550 269.184,230.471 272.120,230.706 273.000 C 230.942 273.880,231.351 275.410,231.616 276.400 C 232.377 279.245,232.735 280.248,232.759 279.600 C 232.778 279.079,232.307 277.213,230.764 271.700 C 230.564 270.985,230.242 269.815,230.048 269.100 C 229.855 268.385,229.227 266.425,228.654 264.746 L 227.611 261.691 232.218 253.568 L 236.825 245.445 234.113 242.682 C 221.266 229.597,200.678 209.378,200.108 209.288 C 199.632 209.213,193.536 215.048,181.500 227.099 M146.100 211.887 C 146.705 211.978,147.695 211.978,148.300 211.887 C 148.905 211.795,148.410 211.720,147.200 211.720 C 145.990 211.720,145.495 211.795,146.100 211.887 M251.705 211.887 C 252.314 211.979,253.214 211.977,253.705 211.882 C 254.197 211.787,253.700 211.711,252.600 211.714 C 251.500 211.717,251.097 211.795,251.705 211.887 M83.819 265.718 C 83.645 266.993,83.602 268.135,83.722 268.255 C 84.022 268.555,84.517 265.071,84.306 264.147 C 84.212 263.736,83.993 264.443,83.819 265.718 M83.019 270.918 C 82.845 272.193,82.802 273.335,82.922 273.455 C 83.222 273.755,83.717 270.271,83.506 269.347 C 83.412 268.936,83.193 269.643,83.019 270.918 M82.211 276.075 C 82.049 277.106,82.002 278.186,82.106 278.475 C 82.210 278.764,82.427 278.156,82.589 277.125 C 82.751 276.094,82.798 275.014,82.694 274.725 C 82.590 274.436,82.373 275.044,82.211 276.075 M81.496 280.750 C 81.333 281.493,81.218 282.663,81.240 283.350 C 81.278 284.538,81.299 284.521,81.656 283.000 C 81.862 282.120,81.977 280.950,81.911 280.400 C 81.805 279.513,81.758 279.552,81.496 280.750 M232.834 281.200 C 232.822 281.750,232.987 282.470,233.200 282.800 C 233.709 283.587,233.709 282.184,233.200 281.000 C 232.885 280.267,232.854 280.284,232.834 281.200 M233.656 284.800 C 233.656 285.350,233.811 286.160,234.000 286.600 C 234.313 287.329,234.344 287.312,234.344 286.400 C 234.344 285.850,234.189 285.040,234.000 284.600 C 233.687 283.871,233.656 283.888,233.656 284.800 M80.696 285.950 C 80.533 286.693,80.418 287.863,80.440 288.550 C 80.478 289.738,80.499 289.721,80.856 288.200 C 81.062 287.320,81.177 286.150,81.111 285.600 C 81.005 284.713,80.958 284.752,80.696 285.950 M234.475 288.800 C 234.486 289.350,234.632 290.340,234.800 291.000 L 235.105 292.200 235.125 290.800 C 235.135 290.030,234.989 289.040,234.800 288.600 C 234.488 287.874,234.458 287.893,234.475 288.800 M79.897 291.200 C 79.740 291.750,79.628 292.920,79.649 293.800 L 79.688 295.400 80.049 293.600 C 80.483 291.444,80.364 289.571,79.897 291.200 M235.453 295.400 C 235.595 296.720,235.776 297.875,235.856 297.967 C 236.204 298.368,235.948 294.139,235.591 293.600 C 235.320 293.189,235.276 293.757,235.453 295.400 M79.097 296.400 C 78.940 296.950,78.828 298.120,78.849 299.000 L 78.888 300.600 79.249 298.800 C 79.683 296.644,79.564 294.771,79.097 296.400 M236.096 303.400 C 236.093 306.131,236.165 306.622,236.394 305.432 C 236.560 304.570,236.562 302.950,236.398 301.832 C 236.138 300.060,236.099 300.260,236.096 303.400 M78.272 302.000 C 78.145 302.770,77.926 304.210,77.785 305.200 C 77.644 306.190,77.379 307.990,77.194 309.200 C 77.010 310.410,76.673 312.660,76.445 314.200 C 76.217 315.740,75.844 318.215,75.616 319.700 C 75.387 321.185,75.014 323.615,74.788 325.100 C 74.561 326.585,74.206 328.880,74.000 330.200 C 73.343 334.403,72.838 337.720,72.417 340.600 C 72.192 342.140,71.825 344.570,71.601 346.000 C 71.378 347.430,71.081 349.410,70.942 350.400 C 70.803 351.390,70.509 352.429,70.288 352.710 C 69.911 353.187,70.182 353.951,70.585 353.548 C 70.796 353.337,71.725 348.442,72.397 344.000 C 72.646 342.350,73.008 340.010,73.200 338.800 C 73.392 337.590,73.745 335.296,73.984 333.702 C 75.250 325.249,75.701 322.296,76.395 317.900 C 77.954 308.016,78.839 301.525,78.684 301.099 C 78.584 300.825,78.399 301.230,78.272 302.000 M235.659 309.200 C 235.620 309.750,235.489 310.650,235.367 311.200 C 235.176 312.062,235.208 312.102,235.597 311.491 C 235.846 311.102,235.977 310.202,235.889 309.491 C 235.764 308.487,235.713 308.422,235.659 309.200 M234.629 313.829 C 234.481 314.415,234.451 314.984,234.561 315.094 C 234.671 315.204,234.881 314.815,235.029 314.229 C 235.176 313.642,235.206 313.073,235.096 312.963 C 234.986 312.853,234.776 313.242,234.629 313.829 " stroke="none" fill="#f9bf7b" fill-rule="evenodd"></path></g></svg>